<svg id="Layer_1" data-name="Layer 1" xmlns="http://www.w3.org/2000/svg" viewBox="0 0 951.07 250.07"><defs><style>.cls-1{fill:#fcbc00;}.cls-2,.cls-5{fill:#1d1d1b;}.cls-3,.cls-4{fill:#fff;}.cls-4,.cls-5{fill-rule:evenodd;}</style></defs><rect class="cls-1" x="4.27" y="4.14" width="706.34" height="241.39"/><polygon class="cls-2" points="710.07 4.14 947.09 4.14 947.09 245.53 710.07 245.53 710.07 4.14 710.07 4.14"/><path class="cls-3" d="M947.09,4.14V245.53H4.27V4.14H947.09m4-4H.27V249.53H951.09V.14Z"/><path class="cls-3" d="M127.5,75.28V176.77H228.66V75.28Zm-3.39-3.4H232V180.17H124.11V71.88Z"/><polygon class="cls-3" points="134.55 158.33 139.1 158.33 140.84 165.15 142.58 158.33 147.11 158.33 147.11 169.54 144.29 169.54 144.29 160.99 142.11 169.54 139.55 169.54 137.37 160.99 137.37 169.54 134.55 169.54 134.55 158.33 134.55 158.33"/><path class="cls-4" d="M156,167.69h-3.91l-.56,1.85h-3.52l4.2-11.21H156l4.18,11.21H156.6l-.56-1.85Zm-.73-2.43-1.22-4-1.22,4Z"/><polygon class="cls-3" points="161.16 158.33 164.38 158.33 168.57 164.52 168.57 158.33 171.84 158.33 171.84 169.54 168.57 169.54 164.41 163.38 164.41 169.54 161.16 169.54 161.16 158.33 161.16 158.33"/><path class="cls-3" d="M173.36,165.83l3.28-.21a2.56,2.56,0,0,0,.43,1.22,1.85,1.85,0,0,0,1.53.68,1.66,1.66,0,0,0,1.13-.35,1,1,0,0,0,0-1.59,4.54,4.54,0,0,0-1.77-.64,7.63,7.63,0,0,1-3.23-1.36,2.75,2.75,0,0,1-1-2.16,3,3,0,0,1,.5-1.63,3.39,3.39,0,0,1,1.5-1.21,7.08,7.08,0,0,1,2.75-.44,5.6,5.6,0,0,1,3.26.8,3.46,3.46,0,0,1,1.34,2.55l-3.25.19a1.72,1.72,0,0,0-.54-1.11,1.75,1.75,0,0,0-1.15-.35,1.36,1.36,0,0,0-.9.26.77.77,0,0,0-.31.62.61.61,0,0,0,.25.48,2.63,2.63,0,0,0,1.15.41,14.77,14.77,0,0,1,3.24,1,3.39,3.39,0,0,1,1.42,1.25,3.13,3.13,0,0,1,.45,1.66,3.49,3.49,0,0,1-.6,2,3.67,3.67,0,0,1-1.65,1.38,6.62,6.62,0,0,1-2.69.47c-1.9,0-3.22-.36-4-1.1a4.34,4.34,0,0,1-1.24-2.79Z"/><path class="cls-4" d="M184.62,163.94a5.31,5.31,0,0,1,5.77-5.8,5.85,5.85,0,0,1,4.3,1.5,5.67,5.67,0,0,1,1.51,4.21,6.9,6.9,0,0,1-.66,3.22,4.69,4.69,0,0,1-1.91,2,6.32,6.32,0,0,1-3.1.69,7.19,7.19,0,0,1-3.13-.6,4.78,4.78,0,0,1-2-1.91,6.38,6.38,0,0,1-.77-3.27Zm3.45,0a3.78,3.78,0,0,0,.63,2.44,2.15,2.15,0,0,0,1.72.74,2.11,2.11,0,0,0,1.72-.73,4.11,4.11,0,0,0,.61-2.6,3.41,3.41,0,0,0-.64-2.31,2.16,2.16,0,0,0-1.73-.73,2.1,2.1,0,0,0-1.68.74,3.77,3.77,0,0,0-.63,2.45Z"/><path class="cls-3" d="M205.15,158.33h3.45V165a5.53,5.53,0,0,1-.31,1.88,3.93,3.93,0,0,1-1,1.54,3.86,3.86,0,0,1-1.39.93,6.9,6.9,0,0,1-2.41.37,14.37,14.37,0,0,1-1.78-.11,4.88,4.88,0,0,1-1.61-.45,4.13,4.13,0,0,1-1.19-1,3.67,3.67,0,0,1-.73-1.29,6.85,6.85,0,0,1-.32-1.9v-6.67h3.45v6.83a2,2,0,0,0,.5,1.43,2.16,2.16,0,0,0,2.8,0,1.93,1.93,0,0,0,.5-1.44v-6.83Z"/><path class="cls-4" d="M210.75,169.54V158.33h5.76a8.45,8.45,0,0,1,2.44.27,2.59,2.59,0,0,1,1.36,1,3.06,3.06,0,0,1,.52,1.82,3.17,3.17,0,0,1-.39,1.61,3.13,3.13,0,0,1-1.1,1.1,4.49,4.49,0,0,1-1.21.44,3.89,3.89,0,0,1,.9.41,4.27,4.27,0,0,1,.55.59,4.41,4.41,0,0,1,.48.7l1.68,3.24h-3.9L216,166.12a2.59,2.59,0,0,0-.62-.86,1.4,1.4,0,0,0-.85-.26h-.3v4.54Zm3.47-6.66h1.46a5.33,5.33,0,0,0,.91-.15.86.86,0,0,0,.56-.35,1,1,0,0,0,.22-.65,1,1,0,0,0-.34-.84,2.11,2.11,0,0,0-1.29-.29h-1.52v2.28Z"/><path class="cls-3" d="M181.09,118h-5.82l-4.1-23.14V118h-5V89h8.67s3.11,18.81,3.38,21.6c.22-2,3.39-21.6,3.39-21.6H190V118h-5.52l.19-23.6L181.09,118Z"/><path class="cls-3" d="M150.13,151.32h15.74V135.54a12.14,12.14,0,0,0-.59-4.9c-.86-2.52-2.15-3.58-3.71-5.33-3.79-4.24-4.95-5.63-4.95-5.63V102.29s-.22-1.83-2.92-1.83a2.78,2.78,0,0,0-2.84,1.83v19s-.29.8-1.67.8-1.68-.8-1.68-.8v-19L158.22,86.8a2.68,2.68,0,0,0-.73-3.58,3.13,3.13,0,0,0-3.93.14S143.15,97,141.76,99c-1.64,2.3-1.39,3.14-1.39,3.14v24.63l9.76,12.93v11.62Z"/><path class="cls-3" d="M205.38,151.32H189.65V135.54a12,12,0,0,1,.58-4.9c.86-2.52,2.15-3.58,3.71-5.33,3.79-4.24,4.95-5.63,4.95-5.63V102.29s.22-1.83,2.92-1.83a2.78,2.78,0,0,1,2.84,1.83v19s.29.8,1.67.8,1.68-.8,1.68-.8v-19L197.29,86.8a2.68,2.68,0,0,1,.73-3.58,3.13,3.13,0,0,1,3.93.14S212.36,97,213.75,99c1.64,2.3,1.39,3.14,1.39,3.14v24.63l-9.76,12.93v11.62Z"/><path class="cls-2" d="M127.5,75.28V176.77H228.66V75.28Zm-3.39-3.4H232V180.17H124.11V71.88Z"/><polygon class="cls-2" points="134.55 158.33 139.1 158.33 140.84 165.15 142.58 158.33 147.11 158.33 147.11 169.54 144.29 169.54 144.29 160.99 142.11 169.54 139.55 169.54 137.37 160.99 137.37 169.54 134.55 169.54 134.55 158.33 134.55 158.33"/><path class="cls-5" d="M156,167.69h-3.91l-.56,1.85h-3.52l4.2-11.21H156l4.18,11.21H156.6l-.56-1.85Zm-.73-2.43-1.22-4-1.22,4Z"/><polygon class="cls-2" points="161.16 158.33 164.38 158.33 168.57 164.52 168.57 158.33 171.84 158.33 171.84 169.54 168.57 169.54 164.41 163.38 164.41 169.54 161.16 169.54 161.16 158.33 161.16 158.33"/><path class="cls-2" d="M173.36,165.83l3.28-.21a2.56,2.56,0,0,0,.43,1.22,1.85,1.85,0,0,0,1.53.68,1.66,1.66,0,0,0,1.13-.35,1,1,0,0,0,0-1.59,4.54,4.54,0,0,0-1.77-.64,7.63,7.63,0,0,1-3.23-1.36,2.75,2.75,0,0,1-1-2.16,3,3,0,0,1,.5-1.63,3.39,3.39,0,0,1,1.5-1.21,7.08,7.08,0,0,1,2.75-.44,5.6,5.6,0,0,1,3.26.8,3.46,3.46,0,0,1,1.34,2.55l-3.25.19a1.72,1.72,0,0,0-.54-1.11,1.75,1.75,0,0,0-1.15-.35,1.36,1.36,0,0,0-.9.26.77.77,0,0,0-.31.62.61.61,0,0,0,.25.48,2.63,2.63,0,0,0,1.15.41,14.77,14.77,0,0,1,3.24,1,3.39,3.39,0,0,1,1.42,1.25,3.13,3.13,0,0,1,.45,1.66,3.49,3.49,0,0,1-.6,2,3.67,3.67,0,0,1-1.65,1.38,6.62,6.62,0,0,1-2.69.47c-1.9,0-3.22-.36-4-1.1a4.34,4.34,0,0,1-1.24-2.79Z"/><path class="cls-5" d="M184.62,163.94a5.31,5.31,0,0,1,5.77-5.8,5.85,5.85,0,0,1,4.3,1.5,5.67,5.67,0,0,1,1.51,4.21,6.9,6.9,0,0,1-.66,3.22,4.69,4.69,0,0,1-1.91,2,6.32,6.32,0,0,1-3.1.69,7.19,7.19,0,0,1-3.13-.6,4.78,4.78,0,0,1-2-1.91,6.38,6.38,0,0,1-.77-3.27Zm3.45,0a3.78,3.78,0,0,0,.63,2.44,2.15,2.15,0,0,0,1.72.74,2.11,2.11,0,0,0,1.72-.73,4.11,4.11,0,0,0,.61-2.6,3.41,3.41,0,0,0-.64-2.31,2.16,2.16,0,0,0-1.73-.73,2.1,2.1,0,0,0-1.68.74,3.77,3.77,0,0,0-.63,2.45Z"/><path class="cls-2" d="M205.15,158.33h3.45V165a5.53,5.53,0,0,1-.31,1.88,3.93,3.93,0,0,1-1,1.54,3.86,3.86,0,0,1-1.39.93,6.9,6.9,0,0,1-2.41.37,14.37,14.37,0,0,1-1.78-.11,4.88,4.88,0,0,1-1.61-.45,4.13,4.13,0,0,1-1.19-1,3.67,3.67,0,0,1-.73-1.29,6.85,6.85,0,0,1-.32-1.9v-6.67h3.45v6.83a2,2,0,0,0,.5,1.43,2.16,2.16,0,0,0,2.8,0,1.93,1.93,0,0,0,.5-1.44v-6.83Z"/><path class="cls-5" d="M210.75,169.54V158.33h5.76a8.45,8.45,0,0,1,2.44.27,2.59,2.59,0,0,1,1.36,1,3.06,3.06,0,0,1,.52,1.82,3.17,3.17,0,0,1-.39,1.61,3.13,3.13,0,0,1-1.1,1.1,4.49,4.49,0,0,1-1.21.44,3.89,3.89,0,0,1,.9.41,4.27,4.27,0,0,1,.55.59,4.41,4.41,0,0,1,.48.7l1.68,3.24h-3.9L216,166.12a2.59,2.59,0,0,0-.62-.86,1.4,1.4,0,0,0-.85-.26h-.3v4.54Zm3.47-6.66h1.46a5.33,5.33,0,0,0,.91-.15.86.86,0,0,0,.56-.35,1,1,0,0,0,.22-.65,1,1,0,0,0-.34-.84,2.11,2.11,0,0,0-1.29-.29h-1.52v2.28Z"/><path class="cls-2" d="M181.09,118h-5.82l-4.1-23.14V118h-5V89h8.67s3.11,18.81,3.38,21.6c.22-2,3.39-21.6,3.39-21.6H190V118h-5.52l.19-23.6L181.09,118Z"/><path class="cls-2" d="M150.13,151.32h15.74V135.54a12.14,12.14,0,0,0-.59-4.9c-.86-2.52-2.15-3.58-3.71-5.33-3.79-4.24-4.95-5.63-4.95-5.63V102.29s-.22-1.83-2.92-1.83a2.78,2.78,0,0,0-2.84,1.83v19s-.29.8-1.67.8-1.68-.8-1.68-.8v-19L158.22,86.8a2.68,2.68,0,0,0-.73-3.58,3.13,3.13,0,0,0-3.93.14S143.15,97,141.76,99c-1.64,2.3-1.39,3.14-1.39,3.14v24.63l9.76,12.93v11.62Z"/><path class="cls-2" d="M205.38,151.32H189.65V135.54a12,12,0,0,1,.58-4.9c.86-2.52,2.15-3.58,3.71-5.33,3.79-4.24,4.95-5.63,4.95-5.63V102.29s.22-1.83,2.92-1.83a2.78,2.78,0,0,1,2.84,1.83v19s.29.8,1.67.8,1.68-.8,1.68-.8v-19L197.29,86.8a2.68,2.68,0,0,1,.73-3.58,3.13,3.13,0,0,1,3.93.14S212.36,97,213.75,99c1.64,2.3,1.39,3.14,1.39,3.14v24.63l-9.76,12.93v11.62Z"/><path class="cls-3" d="M784.42,162c4.16-3.47,4.87-7.77,4.87-11.63v-16.2H766.67v22a5.69,5.69,0,0,1-5.69,5.69,5.51,5.51,0,0,1-5.47-5.69V93.86A5.5,5.5,0,0,1,761,88.17a5.68,5.68,0,0,1,5.69,5.69V116h22.6V93h0c0-12.68-8.29-23.11-28.47-23.14h0c-20.73,0-28.56,10.49-28.56,23.16v65c0,12.58,10,22.09,22.73,22.08h7Z"/><polygon class="cls-3" points="873.6 164.53 873.6 93.07 857.99 93.07 857.99 72.02 914.49 72.02 914.49 93.07 898.8 93.07 898.8 180.03 892.11 180.03 873.6 164.53"/><polygon class="cls-1" points="883.72 180.18 828.7 134.08 771.68 180.18 883.72 180.18"/><path class="cls-3" d="M844.4,72.14H812.88l-18.36,82.38,34.19-27.59,35.66,29.87Zm-21.79,49.51,6.1-31.14,6.06,31.14Z"/><path class="cls-3" d="M937.08,79.74a7.94,7.94,0,1,1-7.92-7.94A7.93,7.93,0,0,1,937.08,79.74Zm-1.5,0a6.45,6.45,0,1,0-6.42,6.49A6.44,6.44,0,0,0,935.58,79.74Zm-7.43,4.59h-2.08V75.09h3.86a2.18,2.18,0,0,1,2.34,2.43,2,2,0,0,1-1.85,2.26v0a1.67,1.67,0,0,1,1.81,1.79,11.29,11.29,0,0,0,.24,2.71h-2.05a3.86,3.86,0,0,1-.28-1.79c0-1.09.17-2-1.45-2h-.54Zm0-5.12h.94c.84,0,1.09-.77,1.09-1.37,0-.87-.42-1.21-1.09-1.21h-.94Z"/><path class="cls-3" d="M478.7,107.25l-7,12.13a16.71,16.71,0,0,1,4.2,5.07,9,9,0,0,1,.88,5.47H441.59s-.78-9.28-1.66-13.22a17.77,17.77,0,0,0-2.74-6.37L429.48,123a14.11,14.11,0,0,1,1.95,3.78,6.68,6.68,0,0,1,.39,3.38H405.65A27.73,27.73,0,0,0,403.3,122a15.4,15.4,0,0,0-4.3-5.57l-6.83,11.13s8.43,9,5.17,12.63c-12.69,14.12-26.46,8.05-26.46,8.05s9.28,15.42,18.85,14.22,13.57-18,13.57-18h28.52l2.54-5.86a20.09,20.09,0,0,0,2.73,4,6,6,0,0,0,2.93,1.29h39.27s7.1-5.81,6-19.89c-.88-11.83-6.64-16.7-6.64-16.7Z"/><polygon class="cls-3" points="375.76 89.55 375.76 138.17 365.99 150 365.99 99.69 375.76 89.55"/><polygon class="cls-3" points="464.44 100.59 472.06 109.04 465.42 118.59 457.6 109.44 464.44 100.59"/><polygon class="cls-3" points="425.76 99.4 432.41 108.84 424.79 117.19 418.34 109.64 411.51 116 404.86 106.65 412.48 98.9 418.54 106.65 425.76 99.4"/><path class="cls-3" d="M346.07,89.75a5.69,5.69,0,0,0,1.46,4.67c2.11,2.15,9.67,5.18,9.67,5.18L350,111V132.3a12.84,12.84,0,0,1-2,8.35,10.39,10.39,0,0,1-5.66,4.38H258.17a12.45,12.45,0,0,1-8.89-6.46c-3.4-6-3.42-15.61-3.42-15.61a21,21,0,0,0,4.2,4.67,14.46,14.46,0,0,0,5.57,2.29l85.75-.2.2-20.48s-4.07-4.64-3.13-8.45,7.62-11,7.62-11Z"/><path class="cls-3" d="M314.62,96.32l-4,9.14a20.57,20.57,0,0,0-5.28,0c-1.06.16-.88,1-.88,1s5.28,7.65-2.83,14.71c-4.69,4.09-16.31-.4-16.31-.4s11.43-1.31,13-3.48c.73-1-3-1.7-2.64-6s5-10.25,6.64-11.63c5.4-4.66,12.31-3.38,12.31-3.38Z"/><path class="cls-3" d="M547.65,129.92s7.36-15.75,14.16-19.09,10.58,2.8,11.43,7.46c2,10.64-3.79,22.73-7.13,25-2.83,1.89-16.5-5.57-16.5-5.57L546.48,144H505.66s-7.91-1.69-8.4-9.15c-.58-8.84-2-32.81-2-32.81l7.91-11.33.3,29.82s0,4.88,1.36,7.06c1.46,2.34,5.86,2.29,5.86,2.29Zm17.78-1.19a5,5,0,0,0-2.54-4.38c-6.23-3.85-6.25.8-6.25.8Z"/><path class="cls-2" d="M478.7,107.25l-7,12.13a16.71,16.71,0,0,1,4.2,5.07,9,9,0,0,1,.88,5.47H441.59s-.78-9.28-1.66-13.22a17.77,17.77,0,0,0-2.74-6.37L429.48,123a14.11,14.11,0,0,1,1.95,3.78,6.68,6.68,0,0,1,.39,3.38H405.65A27.73,27.73,0,0,0,403.3,122a15.4,15.4,0,0,0-4.3-5.57l-6.83,11.13s8.43,9,5.17,12.63c-12.69,14.12-26.46,8.05-26.46,8.05s9.28,15.42,18.85,14.22,13.57-18,13.57-18h28.52l2.54-5.86a20.09,20.09,0,0,0,2.73,4,6,6,0,0,0,2.93,1.29h39.27s7.1-5.81,6-19.89c-.88-11.83-6.64-16.7-6.64-16.7Z"/><polygon class="cls-2" points="375.76 89.55 375.76 138.17 365.99 150 365.99 99.69 375.76 89.55"/><polygon class="cls-2" points="464.44 100.59 472.06 109.04 465.42 118.59 457.6 109.44 464.44 100.59"/><polygon class="cls-2" points="425.76 99.4 432.41 108.84 424.79 117.19 418.34 109.64 411.51 116 404.86 106.65 412.48 98.9 418.54 106.65 425.76 99.4"/><path class="cls-2" d="M346.07,89.75a5.69,5.69,0,0,0,1.46,4.67c2.11,2.15,9.67,5.18,9.67,5.18L350,111V132.3a12.84,12.84,0,0,1-2,8.35,10.39,10.39,0,0,1-5.66,4.38H258.17a12.45,12.45,0,0,1-8.89-6.46c-3.4-6-3.42-15.61-3.42-15.61a21,21,0,0,0,4.2,4.67,14.46,14.46,0,0,0,5.57,2.29l85.75-.2.2-20.48s-4.07-4.64-3.13-8.45,7.62-11,7.62-11Z"/><path class="cls-2" d="M314.62,96.32l-4,9.14a20.57,20.57,0,0,0-5.28,0c-1.06.16-.88,1-.88,1s5.28,7.65-2.83,14.71c-4.69,4.09-16.31-.4-16.31-.4s11.43-1.31,13-3.48c.73-1-3-1.7-2.64-6s5-10.25,6.64-11.63c5.4-4.66,12.31-3.38,12.31-3.38Z"/><path class="cls-2" d="M547.65,129.92s7.36-15.75,14.16-19.09,10.58,2.8,11.43,7.46c2,10.64-3.79,22.73-7.13,25-2.83,1.89-16.5-5.57-16.5-5.57L546.48,144H505.66s-7.91-1.69-8.4-9.15c-.58-8.84-2-32.81-2-32.81l7.91-11.33.3,29.82s0,4.88,1.36,7.06c1.46,2.34,5.86,2.29,5.86,2.29Zm17.78-1.19a5,5,0,0,0-2.54-4.38c-6.23-3.85-6.25.8-6.25.8Z"/></svg>